# xmcd CD database file
#
# Track frame offsets:
#	150
#	16740
#	33248
#	47515
#
# Disc length: 905 seconds
#
# Revision: 2
# Processed by: cddbd v1.5PL3 Copyright (c) Steve Scherf et al.
# Submitted via: CDex 1.50
#
DISCID=20038704
DTITLE=Jello Biafra and Mojo Nixon with The Toadliquors - Will The Fetus Be Aborted ?
DYEAR=1993
DGENRE=Rock
TTITLE0=Will The Fetus Be Aborted
TTITLE1=The Lost World
TTITLE2=Drinkin' With Jesus
TTITLE3=Achey Rakey Heart
EXTD=YEAR: 1993
EXTT0=
EXTT1=
EXTT2=
EXTT3=
PLAYORDER=
